<?xml version="1.0" encoding="UTF-8"?>
<svg id="Layer_1" data-name="Layer 1" xmlns="http://www.w3.org/2000/svg" viewBox="0 0 466.16 432.09">
  <path d="M355.31,432.09c-7.08-20.42-32.69-102.3,5.54-193.41,30.44-72.56,84.43-110.39,105.32-123.52-19.46-21.9-53.74-54.98-105.32-80.71C314.66,11.41,272.52,3.2,244.7,0c-10.5,10.5-21,21-31.5,31.5,25.98.64,66.65,4.84,112.2,23.62,39.19,16.16,67.78,37.25,86.12,53.15-18.91,16.58-61.35,58.41-80.22,126.97-27.03,98.23,14.17,178.82,23.99,196.85Z" style="fill: #6740e3;"/>
  <path d="M355.31,432.09c-13.46-16.91-64.92-85.59-59.12-184.23,4.62-78.56,42.97-132.16,58.32-151.49-25.63-14.2-68.95-34.01-126.14-41.15-51.21-6.39-93.69-.15-120.99,6.08-6.42,13.39-12.83,26.78-19.25,40.17,24.72-8.02,64.48-17.57,113.68-14.98,42.34,2.23,76.31,12.63,98.89,21.53-12.33,21.92-38.47,75.47-33.5,146.4,7.13,101.63,72.87,163.93,88.12,177.67Z" style="fill: #6740e3;"/>
  <path d="M89.56,361.22c-13.66-15.79-37.28-47.49-48.23-94-7.64-32.48-6.33-60.39-3.94-78.74,15.2-11.16,38.09-25.24,68.41-34.94,43.62-13.96,81.53-12.12,103.35-9.35-5.73,22.34-17.87,82.23,8.37,149.61,37.01,95.03,121.87,131.74,137.8,138.29-18.61-13.44-91.75-69.51-112.2-171.75-13.56-67.8,2.57-123.22,11.81-148.62-32.91-4.07-84.99-6.32-145.67,9.35-46.39,11.98-82.51,30.47-107.28,45.77-2.63,18.89-4.7,52.8,8.37,91.54,20.24,59.97,63.53,92.25,79.23,102.85Z" style="fill: #6740e3;"/>
  <text transform="translate(184.64 233.09) rotate(138.99) scale(1 -1)" style="fill: #6740e3; font-family: SegoeScript, &apos;Segoe Script&apos;; font-size: 135.83px;"><tspan x="0" y="0">C</tspan></text>
  <rect x="111.48" y="162.54" width="28.05" height="229.33" rx="14.03" ry="14.03" transform="translate(334.97 497.94) rotate(160.86)" style="fill: #6740e3;"/>
</svg>